<?xml version="1.0" encoding="iso-8859-1"?>
<!-- Uploaded to: SVG Repo, www.svgrepo.com, Generator: SVG Repo Mixer Tools -->
<svg fill="#000000" height="800px" width="800px" version="1.1" id="Layer_1" xmlns="http://www.w3.org/2000/svg" xmlns:xlink="http://www.w3.org/1999/xlink" 
	 viewBox="0 0 491.52 491.52" xml:space="preserve">
<g>
	<g>
		<path d="M433.93,307.2H46.08C20.67,307.2,0,327.87,0,353.28c0,25.41,20.67,46.08,46.08,46.08h387.85l52.66-46.08L433.93,307.2z
			 M92.16,378.88H46.08c-14.115,0-25.6-11.485-25.6-25.6c0-14.115,11.485-25.6,25.6-25.6h46.08V378.88z M378.88,378.88H112.64v-51.2
			h266.24V378.88z M426.23,378.88h-26.87v-51.2h26.87l29.26,25.6L426.23,378.88z"/>
	</g>
</g>
<g>
	<g>
		<path d="M0,92.16v143.36h491.52V92.16H0z M471.04,215.04h-51.2v-51.2h-20.48v51.2h-61.44v-40.96h-20.48v40.96H256v-51.2h-20.48
			v51.2h-61.44v-40.96H153.6v40.96H92.16v-51.2H71.68v51.2h-51.2v-102.4h450.56V215.04z"/>
	</g>
</g>
</svg>