<?xml version="1.0" encoding="iso-8859-1"?>
<!-- Uploaded to: SVG Repo, www.svgrepo.com, Generator: SVG Repo Mixer Tools -->
<!DOCTYPE svg PUBLIC "-//W3C//DTD SVG 1.1//EN" "http://www.w3.org/Graphics/SVG/1.1/DTD/svg11.dtd">
<svg fill="#000000" version="1.1" id="Capa_1" xmlns="http://www.w3.org/2000/svg" xmlns:xlink="http://www.w3.org/1999/xlink" 
	 width="800px" height="800px" viewBox="0 0 356.768 356.767"
	 xml:space="preserve">
<g>
	<path d="M350.909,65.605L291.163,5.859c-7.812-7.811-20.475-7.811-28.284,0l-22.915,22.915l21.515,21.515
		c3.646,3.645,3.646,9.554,0,13.199c-3.645,3.645-9.554,3.645-13.199,0l-21.515-21.515l-36.299,36.299l21.515,21.515
		c3.646,3.645,3.646,9.554,0,13.199c-3.645,3.645-9.554,3.645-13.199,0l-21.515-21.515l-36.299,36.298l21.515,21.515
		c3.645,3.645,3.645,9.554,0,13.199s-9.554,3.645-13.199,0l-21.515-21.515L91.47,177.267l21.515,21.516
		c3.645,3.645,3.645,9.555,0,13.199c-3.645,3.644-9.554,3.645-13.199,0l-21.515-21.516l-36.299,36.298l21.515,21.516
		c3.645,3.645,3.645,9.554,0,13.199c-3.645,3.645-9.554,3.645-13.199,0l-21.515-21.516L5.858,262.878
		c-7.811,7.812-7.811,20.475,0,28.284l59.746,59.746c7.811,7.811,20.474,7.811,28.284,0l257.02-257.02
		C358.72,86.078,358.72,73.416,350.909,65.605z"/>
</g>
</svg>